<?xml version="1.0" encoding="utf-8"?>
<!-- Generator: Adobe Illustrator 16.0.4, SVG Export Plug-In . SVG Version: 6.00 Build 0)  -->
<!DOCTYPE svg PUBLIC "-//W3C//DTD SVG 1.1//EN" "http://www.w3.org/Graphics/SVG/1.1/DTD/svg11.dtd">
<svg version="1.1" id="图层_1" xmlns="http://www.w3.org/2000/svg" xmlns:xlink="http://www.w3.org/1999/xlink" x="0px" y="0px"
	 width="82.086px" height="100px" viewBox="0 0 82.086 100" enable-background="new 0 0 82.086 100" xml:space="preserve">
<g>
	<defs>
		<path id="SVGID_1_" d="M70.453,14.005c-1.645-0.796-3.113,0.033-3.28,1.853l-1.952,21.292c-0.19,2.079,1.336,3.981,3.408,4.249
			l5.74,0.741c2.847,0.367,5.436-1.644,5.783-4.495l1.219-9.992c0.284-2.331-0.81-5.59-2.439-7.274l-4.133-4.271L70.453,14.005z
			 M49.986,7.961l-2.7,22.949c-0.336,2.852,1.694,5.503,4.531,5.92l4.381,0.644c3.614,0.532,6.772-1.989,7.053-5.632l1.619-21.047
			c0,0-3.277-3.291-7.088-4.016C53.973,6.054,49.986,7.961,49.986,7.961z M30.24,4.59l-0.053,6.816l1.031-0.531
			c2.872-1.249,6.003-0.732,7.819,1.82c0,0,1.597,1.581,2.542,4.652c0.322,1.046,1.048,6.608-0.945,11.577
			c-1.682,4.192-7.792,7.191-7.56,8.032c1.33,4.821,10.219,2.102,10.219,2.102c1.011-0.248,1.912-1.295,2.013-2.334l2.889-29.771
			c0,0-3.536-3.829-7.797-4.489S30.24,4.59,30.24,4.59z M13.438,2.331c-1.942,1.73-3.517,5.247-3.517,7.858L10,21.531l17.812-8.906
			l0.556-3.709c0.512-2.559-0.776-5.894-3.01-7.228c0,0-1.421-1.951-6.222-1.659C14.336,0.323,13.438,2.331,13.438,2.331z
			 M13.213,100l3.781-26.696L3.114,56.886c-3.034-3.59-4.021-10.008-2.203-14.338L7.08,27.846c0.908-2.162,3.348-4.771,5.449-5.821
			l18.426-9.213c2.337-1.168,5.365-0.33,6.767,1.873l1.422,2.234c2.382,3.743,2.009,9.532-0.831,12.935c0,0,0.469,0.337-5.254,4.942
			c-5.724,4.605-11.576,9.214-11.576,9.214c1.518,0.543,4.773-0.032,6.582-1.529l3.576-2.959c0,0,2.242,1.913,4.726,2.126
			c2.482,0.214,5.834-0.192,7.812-1.012c2.934-1.214,2.599-4.016,2.599-4.016s4.522,1.996,8.016,2.665
			c3.494,0.67,8.033-0.708,8.033-0.708s3.045,4.702,9.424,5.175s7.5-2,7.5-2c1.362-0.77,2.23,1.401,2.253,2.966l0.081,5.672
			c0.062,4.434-1.467,11.262-3.418,15.244c0,0-0.72,2.238-4.027,6.727c-3.308,4.489-9.923,9.214-9.923,9.214L62.399,100H29.295
			H13.213z"/>
	</defs>
	<use xlink:href="#SVGID_1_"  overflow="visible" fill-rule="evenodd" clip-rule="evenodd" fill="#228FE9"/>
	<clipPath id="SVGID_2_">
		<use xlink:href="#SVGID_1_"  overflow="visible"/>
	</clipPath>
</g>
</svg>
